<svg width="160" height="160" viewBox="0 0 160 160" fill="none" xmlns="http://www.w3.org/2000/svg">
<circle cx="80" cy="80" r="80" fill="#F6F9F9"/>
<mask id="mask0_1109_412" style="mask-type:luminance" maskUnits="userSpaceOnUse" x="38" y="31" width="84" height="98">
<path d="M121.358 31.2412H38V128.758H121.358V31.2412Z" fill="white"/>
</mask>
<g mask="url(#mask0_1109_412)">
<path d="M65.7926 104.388L51.8838 96.2474V79.9921L38 71.8721V104.388L79.6814 128.763V96.2474L65.7976 88.1324V104.388H65.7926Z" fill="#89D1CD"/>
<path d="M79.6813 79.9873L65.7975 88.1276L79.6813 96.2426L93.5901 88.1276L79.6813 79.9873Z" fill="#9EB3CF"/>
<path d="M51.8838 63.7314L38 71.8717L51.8838 79.9867L65.7926 71.8717L51.8838 63.7314Z" fill="#9EB3CF"/>
<path d="M107.474 63.7314L93.5903 71.8717L107.474 79.9867L121.358 71.8717L107.474 63.7314Z" fill="#9EB3CF"/>
<path d="M79.6813 47.4961L65.7975 55.6111L79.6813 63.7514L93.5901 55.6111L79.6813 47.4961Z" fill="#9EB3CF"/>
<path d="M51.8838 79.9863V96.2415L65.7926 104.382V71.8662" fill="white"/>
<path d="M79.6814 63.7565V80.0118L93.5902 88.1268V55.6162" fill="white"/>
<path d="M107.474 80.0115V96.2668L93.5903 104.382V71.8662" fill="#E0F2F4"/>
<path d="M79.6813 63.7565V80.0118L65.7975 88.1268V55.6162" fill="#E0F2F4"/>
<path d="M79.6814 31.2412L38 55.6165L79.6814 80.0171L121.363 55.6165L79.6814 31.2412Z" fill="#DBD8EC"/>
<path d="M38 55.6162V71.8715L51.8838 80.0117V96.267L65.7926 104.382V88.1268L79.6764 96.267V80.0117L38 55.6162Z" fill="#F3EFE8"/>
<path d="M79.6814 80.0117V96.267L93.5902 88.1268V104.382L107.474 96.267V80.0117L121.358 71.8715V55.6162L79.6764 80.0168L79.6814 80.0117Z" fill="#B1DCBE"/>
<path d="M65.7925 104.388L79.6763 96.2731L65.7925 88.1328V104.388Z" fill="#89D1CD"/>
<path d="M107.474 79.9863V96.2415L93.5902 104.382V88.1265L79.6814 96.2415V128.757L121.363 104.382V71.8662L107.479 79.9812L107.474 79.9863Z" fill="#3188B2"/>
</g>
</svg>
