<svg width="41" height="40" viewBox="0 0 41 40" fill="none" xmlns="http://www.w3.org/2000/svg">
<circle opacity="0.2" cx="20.5" cy="20" r="20" fill="#3EDFCF"/>
<g clip-path="url(#clip0_1036_15491)">
<path d="M16.3 15.8H16.307M16.3 24.2H16.307M15.74 18.6H25.26C26.0441 18.6 26.4361 18.6 26.7356 18.4474C26.999 18.3132 27.2132 18.099 27.3474 17.8356C27.5 17.5361 27.5 17.1441 27.5 16.36V15.24C27.5 14.4559 27.5 14.0639 27.3474 13.7644C27.2132 13.501 26.999 13.2868 26.7356 13.1526C26.4361 13 26.0441 13 25.26 13H15.74C14.9559 13 14.5639 13 14.2644 13.1526C14.001 13.2868 13.7868 13.501 13.6526 13.7644C13.5 14.0639 13.5 14.4559 13.5 15.24V16.36C13.5 17.1441 13.5 17.5361 13.6526 17.8356C13.7868 18.099 14.001 18.3132 14.2644 18.4474C14.5639 18.6 14.9559 18.6 15.74 18.6ZM15.74 27H25.26C26.0441 27 26.4361 27 26.7356 26.8474C26.999 26.7132 27.2132 26.499 27.3474 26.2356C27.5 25.9361 27.5 25.5441 27.5 24.76V23.64C27.5 22.8559 27.5 22.4639 27.3474 22.1644C27.2132 21.901 26.999 21.6868 26.7356 21.5526C26.4361 21.4 26.0441 21.4 25.26 21.4H15.74C14.9559 21.4 14.5639 21.4 14.2644 21.5526C14.001 21.6868 13.7868 21.901 13.6526 22.1644C13.5 22.4639 13.5 22.8559 13.5 23.64V24.76C13.5 25.5441 13.5 25.9361 13.6526 26.2356C13.7868 26.499 14.001 26.7132 14.2644 26.8474C14.5639 27 14.9559 27 15.74 27Z" stroke="#151C1A" stroke-opacity="0.9" stroke-width="1.5" stroke-linecap="round" stroke-linejoin="round"/>
</g>
<defs>
<clipPath id="clip0_1036_15491">
<rect width="24" height="24" fill="white" transform="translate(8.5 8)"/>
</clipPath>
</defs>
</svg>
